#!OML:ASF I:\golf\golf\golf 2\Subject 1\2002-09-07\Subject1.ASF
:FULLY-SPECIFIED
:DEGREES
253
root -10.7101 18.0682 4.53657 -95.769 87.7881 -115.271
lowerback 3.35516 1.34078 -0.806252
upperback 5.60857 1.86244 4.01331
thorax 3.75526 0.888129 4.61667
lowerneck -12.1457 -1.44034 2.07414
upperneck 40.6938 1.39933 -4.50613
head 16.8154 0.936294 -1.96135
rclavicle -9.93923e-015 -3.89618e-014
rhumerus -14.9482 22.7277 -98.697
rradius 48.082
rwrist -50.2133
rhand -31.6127 -7.89182
rfingers 7.12502
rthumb -4.87481 -37.8157
lclavicle -9.93923e-015 -3.89618e-014
lhumerus -9.07074 -46.9409 105.306
lradius 43.406
lwrist 49.776
lhand -9.61388 64.9713
lfingers 7.12502
lthumb -163.645 85.6983
rfemur -30.4506 -4.05593 14.3601
rtibia 26.0836
rfoot -7.74548 -11.0243
rtoes -5.92041
lfemur -31.3589 3.86423 -12.1505
ltibia 20.7209
lfoot -7.10562 -6.88019
ltoes -16.663
254
root -10.7099 18.0686 4.53475 -103.605 87.5933 -123.162
lowerback 3.2969 1.3391 -0.578094
upperback 5.57099 1.86191 4.02269
thorax 3.75454 0.897112 4.49801
lowerneck -12.1382 -1.46628 2.08307
upperneck 40.7195 1.34999 -4.45308
head 16.8242 0.928847 -1.94691
rclavicle -2.74323e-014 -4.6118e-014
rhumerus -15.0053 22.7542 -98.7882
rradius 48.0847
rwrist -50.3056
rhand -31.9637 -7.86158
rfingers 7.12502
rthumb -5.21366 -37.7774
lclavicle -2.74323e-014 -4.6118e-014
lhumerus -9.07788 -46.9942 105.28
lradius 43.3688
lwrist 49.7694
lhand -10.0217 64.8736
lfingers 7.12502
lthumb -164.037 85.7642
rfemur -30.4224 -4.34556 14.483
rtibia 26.0456
rfoot -7.62892 -11.1238
rtoes -7.03746
lfemur -31.4603 3.81305 -12.1203
ltibia 20.6118
lfoot -7.07263 -7.28424
ltoes -16.239
255
root -10.7101 18.0702 4.53305 -110.841 87.4359 -130.411
lowerback 3.29794 1.32469 -0.426531
upperback 5.53558 1.84476 4.00409
thorax 3.72276 0.89553 4.39167
lowerneck -12.0871 -1.47212 2.14892
upperneck 40.6754 1.32416 -4.45217
head 16.7849 0.930882 -1.96056
rclavicle 1.59028e-015 -3.97569e-015
rhumerus -15.1706 22.7401 -98.8973
rradius 48.2251
rwrist -50.334
rhand -32.0565 -7.82141
rfingers 7.12502
rthumb -5.30326 -37.7351
lclavicle 1.59028e-015 -3.97569e-015
lhumerus -9.11618 -46.9974 105.245
lradius 43.3305
lwrist 49.6437
lhand -8.09639 64.4717
lfingers 7.12502
lthumb -162.184 86.3245
rfemur -30.3532 -4.5998 14.4851
rtibia 26.0323
rfoot -7.6607 -11.1683
rtoes -6.83809
lfemur -31.5186 3.75769 -12.1841
ltibia 20.5057
lfoot -7.03899 -7.6449
ltoes -15.9344
256
root -10.7105 18.0703 4.53469 -115.125 87.2805 -134.655
lowerback 3.36198 1.31573 -0.443584
upperback 5.53671 1.83509 4.0762
thorax 3.68638 0.890304 4.475
lowerneck -12.0967 -1.44495 2.14865
upperneck 40.599 1.37173 -4.48922
head 16.7485 0.944431 -1.96703
rclavicle -4.05521e-014 -6.2816e-014
rhumerus -15.3037 22.8767 -98.9003
rradius 48.4386
rwrist -50.4183
rhand -32.1488 -7.8088
rfingers 7.12502
rthumb -5.3924 -37.7202
lclavicle -4.05521e-014 -6.2816e-014
lhumerus -9.07476 -46.9743 105.165
lradius 43.3381
lwrist 49.6569
lhand -7.16069 63.9434
lfingers 7.12502
lthumb -161.284 86.937
rfemur -30.2592 -4.64696 14.4799
rtibia 26.0516
rfoot -7.77017 -11.3343
rtoes -6.2148
lfemur -31.5031 3.86264 -12.2465
ltibia 20.3892
lfoot -6.99544 -7.99822
ltoes -15.8115
257
root -10.7101 18.0677 4.53566 -120.223 87.0927 -139.747
lowerback 3.37176 1.29585 -0.520809
upperback 5.52767 1.80899 4.19097
thorax 3.6687 0.873564 4.63883
lowerneck -12.1068 -1.44322 2.03731
upperneck 40.5644 1.41271 -4.49829
head 16.7346 0.94442 -1.94238
rclavicle -7.95139e-016 7.15625e-015
rhumerus -15.3725 23.0914 -98.8127
rradius 48.5665
rwrist -50.5335
rhand -32.3119 -7.81936
rfingers 7.12502
rthumb -5.54991 -37.7267
lclavicle -7.95139e-016 7.15625e-015
lhumerus -9.03269 -47.033 105.167
lradius 43.3569
lwrist 49.8383
lhand -7.74123 63.8185
lfingers 7.12502
lthumb -161.842 87.009
rfemur -30.206 -4.75176 14.4615
rtibia 26.1033
rfoot -7.81808 -11.5686
rtoes -6.55301
lfemur -31.5224 3.87763 -12.3149
ltibia 20.262
lfoot -6.91936 -8.31947
ltoes -15.2077
258
root -10.7102 18.065 4.53514 -125.286 86.8792 -144.829
lowerback 3.35161 1.31062 -0.494297
upperback 5.50424 1.82932 4.23505
thorax 3.65339 0.884769 4.66988
lowerneck -12.1002 -1.49043 2.02982
upperneck 40.5534 1.3627 -4.52503
head 16.7242 0.922983 -1.95998
rclavicle 7.95139e-015 -2.22639e-014
rhumerus -15.3774 23.0561 -98.7631
rradius 48.5437
rwrist -50.6197
rhand -32.4329 -7.69079
rfingers 7.12502
rthumb -5.66668 -37.595
lclavicle 7.95139e-015 -2.22639e-014
lhumerus -9.00925 -47.1706 105.218
lradius 43.3141
lwrist 49.8317
lhand -8.99852 64.157
lfingers 7.12502
lthumb -163.052 86.5624
rfemur -30.1962 -5.04471 14.4766
rtibia 26.1788
rfoot -7.816 -11.6284
rtoes -7.00512
lfemur -31.5552 3.75125 -12.3609
ltibia 20.12
lfoot -6.81279 -8.54842
ltoes -14.5702
259
root -10.7112 18.063 4.53425 -129.989 86.7202 -149.55
lowerback 3.32662 1.33404 -0.506108
upperback 5.49547 1.86036 4.22705
thorax 3.65554 0.900017 4.66849
lowerneck -12.1112 -1.50871 2.12694
upperneck 40.5271 1.33876 -4.59723
head 16.7116 0.920781 -2.01268
rclavicle 3.97569e-015 2.14687e-014
rhumerus -15.3484 22.9571 -98.752
rradius 48.4872
rwrist -50.7012
rhand -32.5856 -7.63592
rfingers 7.12502
rthumb -5.81413 -37.5362
lclavicle 3.97569e-015 2.14687e-014
lhumerus -8.94293 -47.2835 105.191
lradius 43.2564
lwrist 49.6706
lhand -9.43801 64.4416
lfingers 7.12502
lthumb -163.475 86.242
rfemur -30.1921 -5.3055 14.4114
rtibia 26.2504
rfoot -7.79254 -11.6895
rtoes -7.43018
lfemur -31.5815 3.61801 -12.4812
ltibia 19.9847
lfoot -6.73618 -8.7628
ltoes -14.5504
260
root -10.7113 18.061 4.53244 -134.251 86.6222 -153.81
lowerback 3.31138 1.40629 -0.540237
upperback 5.48894 1.95612 4.16723
thorax 3.6498 0.947303 4.62462
lowerneck -12.0869 -1.52839 2.24472
upperneck 40.4845 1.27042 -4.58193
head 16.6773 0.915328 -2.03651
rclavicle 5.56597e-015 -2.38542e-015
rhumerus -15.3654 22.8072 -98.7598
rradius 48.5534
rwrist -50.8012
rhand -32.676 -7.6929
rfingers 7.12502
rthumb -5.90142 -37.5907
lclavicle 5.56597e-015 -2.38542e-015
lhumerus -8.98479 -47.5666 105.165
lradius 43.278
lwrist 49.697
lhand -9.35931 64.5823
lfingers 7.12502
lthumb -163.399 86.1077
rfemur -30.1414 -5.36434 14.2187
rtibia 26.2929
rfoot -7.82558 -11.8939
rtoes -7.6464
lfemur -31.5933 3.64775 -12.7235
ltibia 19.8846
lfoot -6.71445 -9.05945
ltoes -14.8081
261
root -10.71 18.0604 4.53049 -135.923 86.4357 -155.405
lowerback 3.38701 1.49172 -0.416158
upperback 5.48252 2.07396 4.15036
thorax 3.59488 1.01268 4.53295
lowerneck -12.0613 -1.55348 2.34616
upperneck 40.4369 1.17875 -4.52191
head 16.6383 0.903299 -2.04114
rclavicle -3.33958e-014 -4.13472e-014
rhumerus -15.4341 22.6202 -98.7715
rradius 48.6777
rwrist -50.8962
rhand -32.7979 -7.87786
rfingers 7.12502
rthumb -6.01912 -37.7724
lclavicle -3.33958e-014 -4.13472e-014
lhumerus -9.07968 -47.8073 105.183
lradius 43.3011
lwrist 49.9435
lhand -9.50016 64.6143
lfingers 7.12502
lthumb -163.535 86.0644
rfemur -29.9914 -5.28038 14.1687
rtibia 26.3114
rfoot -7.90052 -12.17
rtoes -7.5194
lfemur -31.5349 3.76039 -12.7996
ltibia 19.8045
lfoot -6.72097 -9.39658
ltoes -14.7883
262
root -10.7096 18.0614 4.529 -137.111 86.1411 -156.541
lowerback 3.43417 1.50252 -0.277142
upperback 5.4967 2.09297 4.22414
thorax 3.58376 1.02788 4.53039
lowerneck -12.1015 -1.55634 2.3546
upperneck 40.3733 1.16824 -4.53294
head 16.6131 0.89797 -2.04774
rclavicle -1.98785e-014 -8.42847e-014
rhumerus -15.4247 22.5634 -98.6894
rradius 48.7116
rwrist -50.8846
rhand -32.8328 -8.11345
rfingers 7.12502
rthumb -6.0528 -38.007
lclavicle -1.98785e-014 -8.42847e-014
lhumerus -8.9294 -47.7987 105.173
lradius 43.219
lwrist 50.0797
lhand -9.60887 64.7489
lfingers 7.12502
lthumb -163.64 85.9211
rfemur -29.8667 -5.31672 14.2406
rtibia 26.3219
rfoot -7.92094 -12.3808
rtoes -7.45493
lfemur -31.5184 3.70668 -12.7291
ltibia 19.7337
lfoot -6.71352 -9.63703
ltoes -14.6886
